<svg xmlns="http://www.w3.org/2000/svg" width="250" height="900" viewBox="0 0 250 900">
  <title>icons_all_sprite</title>
  <g id="Layer_4" data-name="Layer 4">
    <path d="M109.004,50h-9V62h12V53Zm0,10h-6V57h6Zm1-5h-8V51h6l2,1.78564Z" fill="#878787"/>
    <path d="M109.004,100h-9v12h12v-9Zm0,10h-6v-3h6Zm1-5h-8v-4h6l2,1.78564Z" fill="#878787" opacity="0.5"/>
    <path d="M56.98862,2,55.70029.71149A2.79841,2.79841,0,0,0,53.983,0H50.05527A.05126.05126,0,0,0,50.004.05127V11h14V2Z" fill="#878787" opacity="0.7"/>
    <path d="M56.98862,52l-1.28833-1.28857A2.79972,2.79972,0,0,0,53.983,50H50.05527a.05126.05126,0,0,0-.05127.05127V61h14V52ZM55.004,59a3,3,0,1,1,3-3A3.00328,3.00328,0,0,1,55.004,59Z" fill="#878787" opacity="0.7"/>
    <g>
      <g>
        <rect x="5.004" y="57" width="6" height="1" fill="#878787"/>
        <rect x="5.004" y="55" width="6" height="1" fill="#878787"/>
        <path d="M4.81967,51A2.96458,2.96458,0,0,1,5.004,52h8V64h-10V54.81592A2.97175,2.97175,0,0,1,2.004,55V65h12V51Z" fill="#878787"/>
      </g>
      <circle cx="2.004" cy="52" r="2" fill="#d29705" opacity="0.9" style="isolation: isolate"/>
    </g>
    <path d="M.004,0V14h12V0Zm11,13h-10V1h10Zm-2-8h-6V4h6Zm0,2h-6V6h6Z" fill="#878787"/>
    <path d="M113.004,8.3418V12h-12V3h5.38965a11.09741,11.09741,0,0,1,4.62451-1H100.004V13h14V7.33691Z" fill="#878787" opacity="0.8"/>
    <path d="M9.004,200v14h12V200Zm11,13h-10V201h10Zm-2-8h-6v-1h6Zm0,2h-6v-1h6Z" fill="#878787"/>
    <g>
      <polygon points="11.005 403 7.519 403 4.004 403 4.004 406.696 4.004 406.696 4.004 408.586 5.418 410 11.005 410 7.514 406.484 11.005 403" fill="#0eaeff"/>
      <polygon points="7.519 403 4.004 406.696 4.004 408.586 4.711 409.292 7.514 406.484 11.005 403 7.519 403" fill="#f7861e"/>
    </g>
    <g>
      <polygon points="1.004 400 1.004 408.586 1.954 407.636 2.004 407.543 2.004 406.586 2.004 401 12.004 401 12.004 413 6.418 413 5.418 414 13.004 414 13.004 400 1.004 400" fill="#878787"/>
      <polygon points="2.004 409 -0.996 412 2.004 415 2.004 409" fill="#e05219"/>
      <polygon points="3.004 415 6.004 412 3.004 409 3.004 415" fill="#4ca01f"/>
    </g>
    <g>
      <path d="M12.005,454h-6.352a3.51717,3.51717,0,0,1-.64892.94189v4.644L6.41806,461H12.005l-3.49072-3.51562Z" fill="#0eaeff"/>
      <polygon points="8.519 454 5.004 457.696 5.004 459.586 5.711 460.292 8.514 457.484 12.005 454 8.519 454" fill="#f7861e"/>
    </g>
    <g>
      <g>
        <path d="M4.81967,451a2.96458,2.96458,0,0,1,.18433,1h8v12H7.41806l-1,1H14.004V451Z" fill="#878787"/>
        <path d="M2.004,455v4.58594l.95044-.9502L3.004,458.543v-3.72705A2.97175,2.97175,0,0,1,2.004,455Z" fill="#878787"/>
      </g>
      <polygon points="3.004 460 0.004 463 3.004 466 3.004 460" fill="#e05219"/>
      <polygon points="4.004 466 7.004 463 4.004 460 4.004 466" fill="#4ca01f"/>
    </g>
    <g>
      <circle cx="2.00667" cy="152.00267" r="2.00267" fill="#d29705" opacity="0.9" style="isolation: isolate"/>
      <g>
        <path d="M4.81967,151a2.96458,2.96458,0,0,1,.18433,1h8v12H7.41806l-1,1H14.004V151Z" fill="#878787"/>
        <path d="M2.004,155v4.58594l1-1v-3.77A2.97175,2.97175,0,0,1,2.004,155Z" fill="#878787"/>
        <polygon points="11.004 155 5.004 155 5.004 155.811 5.004 156 11.004 156 11.004 155" fill="#878787"/>
        <polygon points="11.004 157 5.004 157 5.004 157.811 5.004 158 11.004 158 11.004 157" fill="#878787"/>
      </g>
    </g>
    <path d="M6.004,202.98633V203c0-1.6543-.43213-3-2.5-3s-2.5,1.3457-2.5,3h0a2.78473,2.78473,0,0,0-1,2.01667V209h7v-3.98333A2.76616,2.76616,0,0,0,6.004,202.98633ZM4.004,208h-1v-3h1Zm-1.375-5a2.73111,2.73111,0,0,0-.625.07031V203c0-1.51667.12109-2,1.5-2s1.5.43333,1.5,2v.06885A2.83787,2.83787,0,0,0,4.379,203Z" fill="#878787"/>
    <path d="M6.004,502.98633V503c0-1.6543-.43213-3-2.5-3s-2.5,1.3457-2.5,3h0a2.78473,2.78473,0,0,0-1,2.01667V509h7v-3.98333A2.76616,2.76616,0,0,0,6.004,502.98633ZM4.004,508h-1v-3h1Zm-1.375-5a2.73111,2.73111,0,0,0-.625.07031V503c0-1.51667.12109-2,1.5-2s1.5.43333,1.5,2v.06885A2.83787,2.83787,0,0,0,4.379,503Z" fill="#878787"/>
    <g>
      <polygon points="12.004 256.811 12.004 257 18.004 257 18.004 256 12.004 256 12.004 256.811" fill="#878787"/>
      <rect x="12.004" y="254" width="6" height="1" fill="#878787"/>
      <polygon points="9.004 250 9.004 258.586 10.004 257.586 10.004 256.586 10.004 251 20.004 251 20.004 263 14.418 263 13.418 264 21.004 264 21.004 250 9.004 250" fill="#878787"/>
    </g>
    <path d="M6.004,252.98633V253c0-1.6543-.43213-3-2.5-3s-2.5,1.3457-2.5,3h0a2.78473,2.78473,0,0,0-1,2.01667V259h7v-3.98333A2.76616,2.76616,0,0,0,6.004,252.98633ZM4.004,258h-1v-3h1Zm-1.375-5a2.73111,2.73111,0,0,0-.625.07031V253c0-1.51667.12109-2,1.5-2s1.5.43333,1.5,2v.06885A2.83787,2.83787,0,0,0,4.379,253Z" fill="#878787"/>
    <g>
      <path d="M.004,300v14h12V300Zm11,13h-10V301h10Z" fill="#878787"/>
      <g>
        <polygon points="10.005 303 6.519 303 3.004 303 3.004 306.696 3.004 306.696 3.004 310 10.005 310 6.514 306.484 10.005 303" fill="#0eaeff"/>
        <path d="M6.519,303l-3.515,3.696V310l3.51-3.5156L10.005,303Z" fill="#f7861e"/>
      </g>
    </g>
    <path d="M.004,600v14h12V600Zm11,13h-10V601h10Z" fill="#878787"/>
    <g>
      <path d="M4.81967,351a2.96458,2.96458,0,0,1,.18433,1h8v12h-10v-9.18408a2.97175,2.97175,0,0,1-1,.18408v10h12V351Z" fill="#878787"/>
      <circle cx="2.004" cy="352" r="2" fill="#d29705" opacity="0.9" style="isolation: isolate"/>
      <g>
        <polygon points="12.005 354 8.519 354 5.004 354 5.004 357.696 5.004 357.696 5.004 361 12.005 361 8.514 357.484 12.005 354" fill="#0eaeff"/>
        <path d="M8.519,354l-3.515,3.696V361l3.51-3.5156L12.005,354Z" fill="#f7861e"/>
      </g>
    </g>
    <path d="M4.81967,651a2.96458,2.96458,0,0,1,.18433,1h8v12h-10v-9.18408a2.97175,2.97175,0,0,1-1,.18408v10h12V651Z" fill="#878787"/>
    <circle cx="2.004" cy="652" r="2" fill="#d29705" opacity="0.9" style="isolation: isolate"/>
    <g>
      <g>
        <polygon points="5.004 106.811 5.004 107 11.004 107 11.004 106 5.004 106 5.004 106.811" fill="#878787"/>
        <rect x="5.004" y="104" width="6" height="1" fill="#878787"/>
        <polygon points="2.004 100 2.004 108.586 3.004 107.586 3.004 106.586 3.004 101 13.004 101 13.004 113 7.418 113 6.418 114 14.004 114 14.004 100 2.004 100" fill="#878787"/>
      </g>
      <polygon points="3.004 109 0.004 112 3.004 115 3.004 109" fill="#e05219"/>
      <polygon points="4.004 115 7.004 112 4.004 109 4.004 115" fill="#53ae31"/>
    </g>
    <polygon points="3.004 160 0.004 163 3.004 166 3.004 160" fill="#e05219"/>
    <polygon points="4.004 166 7.004 163 4.004 160 4.004 166" fill="#4ca01f"/>
    <polygon points="10.004 259 7.004 262 10.004 265 10.004 259" fill="#e05219"/>
    <polygon points="11.004 265 14.004 262 11.004 259 11.004 265" fill="#4ca01f"/>
    <circle cx="2.004" cy="452" r="2" fill="#d29705" opacity="0.9" style="isolation: isolate"/>
    <g opacity="0.9">
      <path d="M7.1329,709.90576a.64834.64834,0,0,1-.23974.56934l1.22851,1.22851a1.70575,1.70575,0,0,0,.83448-1.66455v-5.312H7.1329Z" fill="#e05219"/>
      <rect x="7.08505" y="702" width="1.91895" height="1.50537" fill="#e05219"/>
    </g>
    <g>
      <polygon points="2.004 700 2.004 708.586 2.954 707.636 3.004 707.543 3.004 706.586 3.004 701 13.004 701 13.004 713 7.418 713 6.418 714 14.004 714 14.004 700 2.004 700" fill="#878787"/>
      <polygon points="3.004 709 0.004 712 3.004 715 3.004 709" fill="#e05219"/>
      <polygon points="4.004 715 7.004 712 4.004 709 4.004 715" fill="#4ca01f"/>
    </g>
    <g opacity="0.5">
      <path d="M14.1329,859.90576a.64834.64834,0,0,1-.23974.56934l1.22851,1.22851a1.70575,1.70575,0,0,0,.83448-1.66455v-5.312H14.1329Z" fill="#878787"/>
      <rect x="14.08505" y="852" width="1.91895" height="1.50537" fill="#878787"/>
    </g>
    <polygon points="9.004 850 9.004 858.586 9.954 857.636 10.004 857.543 10.004 856.586 10.004 851 20.004 851 20.004 863 14.418 863 13.418 864 21.004 864 21.004 850 9.004 850" fill="#878787" opacity="0.5"/>
    <polygon points="10.004 859 7.004 862 10.004 865 10.004 859" fill="#e05219"/>
    <polygon points="11.004 865 14.004 862 11.004 859 11.004 865" fill="#4ca01f"/>
    <g opacity="0.9">
      <path d="M7.1329,760.90576a.64834.64834,0,0,1-.23974.56934l1.22851,1.22851a1.70575,1.70575,0,0,0,.83448-1.66455v-5.312H7.1329Z" fill="#e05219"/>
      <rect x="7.08505" y="753" width="1.91895" height="1.50537" fill="#e05219"/>
    </g>
    <g>
      <g>
        <path d="M4.81967,751a2.96458,2.96458,0,0,1,.18433,1h8v12H7.41806l-1,1H14.004V751Z" fill="#878787"/>
        <path d="M2.004,755v4.58594l.95044-.9502L3.004,758.543v-3.727A2.97175,2.97175,0,0,1,2.004,755Z" fill="#878787"/>
      </g>
      <polygon points="3.004 760 0.004 763 3.004 766 3.004 760" fill="#e05219"/>
      <polygon points="4.004 766 7.004 763 4.004 760 4.004 766" fill="#4ca01f"/>
    </g>
    <circle cx="2.004" cy="752" r="2" fill="#d29705" opacity="0.9" style="isolation: isolate"/>
    <g opacity="0.5">
      <path d="M9.004,500v14h12V500Zm11,13h-10V501h10Z" fill="#878787"/>
      <g>
        <polygon points="19.005 503 15.519 503 12.004 503 12.004 506.696 12.004 506.696 12.004 510 19.005 510 15.514 506.484 19.005 503" fill="#878787"/>
        <path d="M15.519,503l-3.515,3.696V510l3.51-3.5156L19.005,503Z" fill="#878787"/>
      </g>
    </g>
    <path d="M6.004,552.98633V553c0-1.6543-.43213-3-2.5-3s-2.5,1.3457-2.5,3h0a2.78473,2.78473,0,0,0-1,2.01667V559h7v-3.98333A2.76616,2.76616,0,0,0,6.004,552.98633ZM4.004,558h-1v-3h1Zm-1.375-5a2.73111,2.73111,0,0,0-.625.07031V553c0-1.51667.12109-2,1.5-2s1.5.43333,1.5,2v.06885A2.83787,2.83787,0,0,0,4.379,553Z" fill="#878787"/>
    <g opacity="0.5">
      <g>
        <polygon points="19.005 553 15.519 553 12.004 553 12.004 556.696 12.004 556.696 12.004 560 19.005 560 15.514 556.484 19.005 553" fill="#878787"/>
        <path d="M15.519,553l-3.515,3.696V560l3.51-3.5156L19.005,553Z" fill="#878787"/>
      </g>
    </g>
    <g>
      <polygon points="9.004 550 9.004 558.586 9.954 557.636 10.004 557.543 10.004 556.586 10.004 551 20.004 551 20.004 563 14.418 563 13.418 564 21.004 564 21.004 550 9.004 550" fill="#878787" opacity="0.5"/>
      <polygon points="10.004 559 7.004 562 10.004 565 10.004 559" fill="#e05219"/>
      <polygon points="11.004 565 14.004 562 11.004 559 11.004 565" fill="#4ca01f"/>
    </g>
    <path d="M6.004,852.98633V853c0-1.6543-.43213-3-2.5-3s-2.5,1.3457-2.5,3h0a2.78473,2.78473,0,0,0-1,2.01667V859h7v-3.98333A2.76616,2.76616,0,0,0,6.004,852.98633ZM4.004,858h-1v-3h1Zm-1.375-5a2.73111,2.73111,0,0,0-.625.07031V853c0-1.51667.12109-2,1.5-2s1.5.43333,1.5,2v.06885A2.83787,2.83787,0,0,0,4.379,853Z" fill="#878787"/>
    <path d="M6.004,802.98633V803c0-1.6543-.43213-3-2.5-3s-2.5,1.3457-2.5,3h0a2.78473,2.78473,0,0,0-1,2.01667V809h7v-3.98333A2.76616,2.76616,0,0,0,6.004,802.98633ZM4.004,808h-1v-3h1Zm-1.375-5a2.73111,2.73111,0,0,0-.625.07031V803c0-1.51667.12109-2,1.5-2s1.5.43333,1.5,2v.06885A2.83787,2.83787,0,0,0,4.379,803Z" fill="#878787"/>
    <g opacity="0.8" style="isolation: isolate">
      <path d="M3.23929,611.8904v-1.32653c.14356.02179,1.11432.0336,1.24615.0336.38379,0,.64746-.18977.64746-.69187v-5.17833H6.95615v5.3118c0,1.31654-.71973,1.91852-2.06348,1.91852C4.55771,611.95759,3.49124,611.93489,3.23929,611.8904ZM5.08505,602H7.004v1.5054H5.08505Z" fill="#e05219"/>
    </g>
    <g opacity="0.8" style="isolation: isolate">
      <path d="M5.23929,662.8904v-1.32653c.14356.02179,1.11432.0336,1.24615.0336.38379,0,.64746-.18977.64746-.69187v-5.17833H8.95615v5.3118c0,1.31654-.71973,1.91852-2.06348,1.91852C6.55771,662.95759,5.49124,662.93489,5.23929,662.8904ZM7.08505,653H9.004v1.5054H7.08505Z" fill="#e05219"/>
    </g>
    <path d="M9.004,800v14h12V800Zm11,13h-10V801h10Z" fill="#878787" opacity="0.5"/>
    <g opacity="0.5" style="isolation: isolate">
      <path d="M12.23929,811.8904v-1.32653c.14356.02179,1.11432.0336,1.24615.0336.38379,0,.64746-.18977.64746-.69187v-5.17833h1.82325v5.3118c0,1.31654-.71973,1.91852-2.06348,1.91852C13.55771,811.95759,12.49124,811.93489,12.23929,811.8904ZM14.08505,802h1.919v1.5054h-1.919Z" fill="#878787"/>
    </g>
    <circle cx="55.004" cy="56" r="2" fill="#d29705" opacity="0.9" style="isolation: isolate"/>
    <path d="M107.00693,161.5a4.45894,4.45894,0,0,1,.27539-1.5H103.004v-3h6v.76318a4.00133,4.00133,0,0,1,3-.71V153l-3-3h-9v12h7.05322A4.44637,4.44637,0,0,1,107.00693,161.5ZM102.004,155v-4h6l2,1.78564V155Z" fill="#878787"/>
    <circle cx="111.504" cy="161.5" r="3.5" fill="#d29705" style="isolation: isolate"/>
    <path d="M57.004,110.5a4.49836,4.49836,0,0,1,7-3.74023V102H56.98862l-1.28833-1.28857A2.79972,2.79972,0,0,0,53.983,100H50.05527a.05126.05126,0,0,0-.05127.05127V111h7.05029A4.44637,4.44637,0,0,1,57.004,110.5Z" fill="#878787" opacity="0.7"/>
    <circle cx="61.504" cy="110.5" r="3.5" fill="#4ca01f" style="isolation: isolate"/>
    <polygon points="114.004 161 112.004 161 112.004 159 111.004 159 111.004 161 109.004 161 109.004 162 111.004 162 111.004 164 112.004 164 112.004 162 114.004 162 114.004 161" fill="#fff"/>
    <path d="M107.00693,211.5a4.45894,4.45894,0,0,1,.27539-1.5H103.004v-3h6v.76318a4.00133,4.00133,0,0,1,3-.71V203l-3-3h-9v12h7.05322A4.44637,4.44637,0,0,1,107.00693,211.5ZM102.004,205v-4h6l2,1.78564V205Z" fill="#878787" opacity="0.5"/>
    <path d="M111.504,208a3.5,3.5,0,1,0,3.5,3.5A3.49985,3.49985,0,0,0,111.504,208Zm.5,4v2h-1v-2h-2v-1h2v-2h1v2h2v1Z" fill="#878787" opacity="0.5" style="isolation: isolate"/>
    <polygon points="64.271 109.873 63.564 109.165 61.504 111.225 59.804 109.525 59.097 110.232 61.503 112.638 61.503 112.638 61.504 112.639 64.271 109.873" fill="#fff"/>
    <path d="M57.004,160.5a4.49836,4.49836,0,0,1,7-3.74023V152H56.98862l-1.28833-1.28857A2.79972,2.79972,0,0,0,53.983,150H50.05527a.05126.05126,0,0,0-.05127.05127V161h7.05029A4.44637,4.44637,0,0,1,57.004,160.5Z" fill="#878787" opacity="0.7"/>
    <circle cx="61.504" cy="160.5" r="3.5" fill="#d29705" style="isolation: isolate"/>
    <polygon points="63.004 160.504 60.004 162.634 60.004 158.373 63.004 160.504" fill="#fff"/>
    <path d="M57.004,210.5a4.49836,4.49836,0,0,1,7-3.74023V202H56.98862l-1.28833-1.28857A2.79972,2.79972,0,0,0,53.983,200H50.05527a.05126.05126,0,0,0-.05127.05127V211h7.05029A4.44637,4.44637,0,0,1,57.004,210.5Z" fill="#878787" opacity="0.7"/>
    <circle cx="61.504" cy="210.5" r="3.5" fill="#d29705" style="isolation: isolate"/>
    <polygon points="64.004 210 62.004 210 62.004 208 61.004 208 61.004 210 59.004 210 59.004 211 61.004 211 61.004 213 62.004 213 62.004 211 64.004 211 64.004 210" fill="#fff"/>
    <path d="M56.504,251a5.5,5.5,0,1,1-5.5,5.5,5.50623,5.50623,0,0,1,5.5-5.5m0-1a6.5,6.5,0,1,0,6.5,6.5,6.5,6.5,0,0,0-6.5-6.5Z" fill="#878787" style="isolation: isolate"/>
    <polygon points="60.004 256 57.004 256 57.004 253 56.004 253 56.004 256 53.004 256 53.004 257 56.004 257 56.004 260 57.004 260 57.004 257 60.004 257 60.004 256" fill="#878787"/>
    <path d="M56.504,351a5.5,5.5,0,1,1-5.5,5.5,5.50623,5.50623,0,0,1,5.5-5.5m0-1a6.5,6.5,0,1,0,6.5,6.5,6.5,6.5,0,0,0-6.5-6.5Z" fill="#878787" style="isolation: isolate"/>
    <polygon points="59.332 358.621 57.211 356.5 59.332 354.379 58.625 353.672 56.504 355.793 54.383 353.672 53.676 354.379 55.797 356.5 53.676 358.621 54.383 359.328 56.504 357.207 58.625 359.328 59.332 358.621" fill="#878787"/>
    <g style="isolation: isolate">
      <circle cx="56.504" cy="406.5" r="6.5" fill="#e05219"/>
    </g>
    <polygon points="59.332 408.621 57.211 406.5 59.332 404.379 58.625 403.672 56.504 405.793 54.383 403.672 53.676 404.379 55.797 406.5 53.676 408.621 54.383 409.328 56.504 407.207 58.625 409.328 59.332 408.621" fill="#fff"/>
    <g style="isolation: isolate">
      <circle cx="56.504" cy="306.5" r="6.5" fill="#d29705"/>
    </g>
    <polygon points="60.004 306 57.004 306 57.004 303 56.004 303 56.004 306 53.004 306 53.004 307 56.004 307 56.004 310 57.004 310 57.004 307 60.004 307 60.004 306" fill="#fff"/>
    <g>
      <path d="M56.504,451a5.5,5.5,0,1,1-5.5,5.5,5.50623,5.50623,0,0,1,5.5-5.5m0-1a6.5,6.5,0,1,0,6.5,6.5,6.5,6.5,0,0,0-6.5-6.5Z" fill="#878787" style="isolation: isolate"/>
      <g>
        <polygon points="56.001 458.736 54.411 457.129 53.28 459.648 56.001 458.736" fill="#878787"/>
        <rect x="55.29374" y="454.60046" width="4.36357" height="2.00431" transform="translate(-305.17961 173.89633) rotate(-44.97032)" fill="#878787"/>
      </g>
    </g>
    <g>
      <path d="M56.504,500a6.5,6.5,0,1,0,6.5,6.5,6.5,6.5,0,0,0-6.5-6.5Z" fill="#239cd8" opacity="0.9" style="isolation: isolate"/>
      <g>
        <polygon points="56.001 508.736 54.411 507.129 53.28 509.648 56.001 508.736" fill="#fff"/>
        <rect x="55.29374" y="504.60046" width="4.36357" height="2.00431" transform="translate(-340.51663 188.52268) rotate(-44.97032)" fill="#fff"/>
      </g>
    </g>
    <polygon points="55.004 555 50.004 559.467 50.004 550.533 55.004 555" fill="#878787"/>
    <polygon points="110.004 356.487 100.004 362.487 100.004 350.487 110.004 356.487" fill="#4ca01f" opacity="0.9"/>
    <polygon points="103.476 700 106.976 704 99.976 704 103.476 700" fill="#878787"/>
    <polygon points="103.476 754 106.976 750 99.976 750 103.476 754" fill="#878787"/>
    <polygon points="57.004 607 50.004 607 57.004 600 57.004 607" fill="#878787"/>
    <circle cx="53.504" cy="653.5" r="3.5" fill="#4ca01f" opacity="0.9"/>
    <circle cx="53.504" cy="703.5" r="3.5" fill="#e05219"/>
    <circle cx="53.504" cy="753.5" r="3.5" fill="#878787"/>
    <circle cx="107.004" cy="657" r="7" fill="#4ca01f" opacity="0.9" style="isolation: isolate"/>
    <polygon points="111.812 655.205 110.504 654.025 106.49 658.625 103.35 655.077 102.129 656.182 106.504 661 111.812 655.205" fill="#fff"/>
    <circle cx="156.004" cy="456" r="6" fill="#4ca01f" opacity="0.9" style="isolation: isolate"/>
    <g>
      <path d="M151.99141,456.01018v-.0108a2,2,0,0,1,4-.01125v.01125a2,2,0,0,1-4,.0108Zm3.13451,0v-.0108a1.2781,1.2781,0,0,0-.26506-.79166,1.09555,1.09555,0,0,0-.87492-.42395,1.08249,1.08249,0,0,0-.873.42313,1.2716,1.2716,0,0,0-.256.78123v.01125a1.26548,1.26548,0,0,0,.32.85609,1.1179,1.1179,0,0,0,1.56127.07876A1.23765,1.23765,0,0,0,155.12592,456.01018Z" fill="#fff"/>
      <path d="M157.004,454h.85357v1.74852L159.42072,454h1.04767l-1.58527,1.69734L160.53519,458h-1.02555l-1.20294-1.70292-.44913.48017V458H157.004Z" fill="#fff"/>
    </g>
    <circle cx="156.004" cy="506" r="6" fill="#e05219" opacity="0.9" style="isolation: isolate"/>
    <path d="M157.00009,502.98828v1.49365a.49126.49126,0,0,1-.00976.09619L156.28574,507h-.57129l-.70459-2.42188a.44233.44233,0,0,1-.00586-.05712V503c0-.26465,0-.99023.47558-.99023h1.041C157.004,502.00977,157.00009,502.72363,157.00009,502.98828Zm-.10547,5.9329-.46435-.61117a.47056.47056,0,0,0-.37354-.18943h-.11181a.47078.47078,0,0,0-.374.18943l-.46435.61117a.52557.52557,0,0,0-.10254.30764v.28184a.49086.49086,0,0,0,.47607.48934h1.041a.49312.49312,0,0,0,.479-.50638l.00049-.25447A.52333.52333,0,0,0,156.89462,508.92118Z" fill="#fff"/>
    <circle cx="156.004" cy="556" r="6" fill="#d29705" opacity="0.9" style="isolation: isolate"/>
    <path d="M157.00009,552.98828v1.49365a.49126.49126,0,0,1-.00976.09619L156.28574,557h-.57129l-.70459-2.42188a.44233.44233,0,0,1-.00586-.05712V553c0-.26465,0-.99023.47558-.99023h1.041C157.004,552.00977,157.00009,552.72363,157.00009,552.98828Zm-.10547,5.9329-.46435-.61117a.47056.47056,0,0,0-.37354-.18943h-.11181a.47078.47078,0,0,0-.374.18943l-.46435.61117a.52557.52557,0,0,0-.10254.30764v.28184a.49086.49086,0,0,0,.47607.48934h1.041a.49312.49312,0,0,0,.479-.50638l.00049-.25447A.52333.52333,0,0,0,156.89462,558.92118Z" fill="#fff"/>
    <circle cx="156.004" cy="606" r="6" fill="#878787" opacity="0.9" style="isolation: isolate"/>
    <path d="M157.00009,602.98828v1.49365a.49126.49126,0,0,1-.00976.09619L156.28574,607h-.57129l-.70459-2.42188a.44233.44233,0,0,1-.00586-.05712V603c0-.26465,0-.99023.47558-.99023h1.041C157.004,602.00977,157.00009,602.72363,157.00009,602.98828Zm-.10547,5.9329-.46435-.61117a.47056.47056,0,0,0-.37354-.18943h-.11181a.47078.47078,0,0,0-.374.18943l-.46435.61117a.52557.52557,0,0,0-.10254.30764v.28184a.49086.49086,0,0,0,.47607.48934h1.041a.49312.49312,0,0,0,.479-.50638l.00049-.25447A.52333.52333,0,0,0,156.89462,608.92118Z" fill="#fff"/>
    <g id="_Group_" data-name="&lt;Group&gt;" opacity="0.9">
      <circle cx="107" cy="307" r="3.98809" fill="#d29705"/>
    </g>
    <g style="isolation: isolate">
      <path d="M105.63558,309.91183v-.796c.07662.01308.9538.04349,1.02416.04349.20485,0,.34558-.11388.34558-.41518v-2.93357h.97314v3.01366c0,.79005-.38415,1.15129-1.10136,1.15129C106.69831,309.97548,105.77005,309.93853,105.63558,309.91183ZM107.00532,304h.99868v.90338h-.99868Z" fill="#777"/>
    </g>
    <path d="M113.504,304.20215,112.004,307h.811l.001-.00049L112.8165,307h.11621s-.01319.28906,0,.59131c.00195.05029.00195.102-.001.1543a5.90983,5.90983,0,0,1-1.68945,3.49658,5.99992,5.99992,0,1,1-4.23828-10.27832v-.937a6.92806,6.92806,0,0,0-4.9541,2.02294,6.99994,6.99994,0,0,0,9.89941,9.89942,6.92852,6.92852,0,0,0,2.02246-4.86084V307h1.02051Z" fill="#777"/>
    <g>
      <rect x="100.004" y="400" width="4" height="4" fill="#878787" opacity="0.6"/>
      <rect x="105.004" y="400" width="4" height="4" fill="#878787" opacity="0.6"/>
      <rect x="110.004" y="400" width="4" height="4" fill="#4ca01f" opacity="0.9"/>
      <rect x="100.004" y="405" width="7" height="4" fill="#878787" opacity="0.6"/>
      <rect x="108.004" y="405" width="4" height="4" fill="#878787" opacity="0.6"/>
      <rect x="100.004" y="410" width="9" height="4" fill="#4ca01f" opacity="0.9"/>
      <rect x="110.004" y="410" width="4" height="4" fill="#878787" opacity="0.6"/>
    </g>
    <path d="M160.98724,410.986c.02069-2.10623-.24408-4.82054-1.76829-6.34513A5.89115,5.89115,0,0,0,154.95055,403H154.004v-3l-4.0127,3.93046L154.004,408v-3s.75726-.00192,1.014,0a3.84734,3.84734,0,0,1,2.78136,1.0616c1.03837,1.03874,1.61847,2.57024,1.61847,4.92437Z" fill="#239cd8" opacity="0.9"/>
    <path d="M160.98724,360.986c.02069-2.10623-.24408-4.82054-1.76829-6.34513A5.89115,5.89115,0,0,0,154.95055,353H154.004v-3l-4.0127,3.93046L154.004,358v-3s.75726-.00192,1.014,0a3.84734,3.84734,0,0,1,2.78136,1.0616c1.03837,1.03874,1.61847,2.57024,1.61847,4.92437Z" fill="#878787" opacity="0.9"/>
    <polygon points="161.004 309.625 156.879 305.5 161.004 301.375 159.629 300 155.504 304.125 151.379 300 150.004 301.375 154.129 305.5 150.004 309.625 151.379 311 155.504 306.875 159.629 311 161.004 309.625" fill="#878787" opacity="0.9"/>
    <g>
      <polygon points="104.004 450 100.004 450 100.004 454 101.65 452.354 104.236 454.939 104.943 454.232 102.358 451.646 104.004 450" fill="#878787"/>
      <polygon points="108.004 450 109.65 451.646 107.065 454.232 107.772 454.939 110.358 452.354 112.004 454 112.004 450 108.004 450" fill="#878787"/>
      <polygon points="104.236 457.061 101.65 459.646 100.004 458 100.004 462 104.004 462 102.358 460.354 104.943 457.768 104.236 457.061" fill="#878787"/>
      <polygon points="107.772 457.061 107.065 457.768 109.65 460.354 108.004 462 112.004 462 112.004 458 110.358 459.646 107.772 457.061" fill="#878787"/>
    </g>
    <g>
      <polygon points="111.004 507 107.004 507 107.004 511 108.65 509.354 111.236 511.939 111.943 511.232 109.358 508.646 111.004 507" fill="#878787"/>
      <polygon points="102.65 508.646 100.065 511.232 100.772 511.939 103.358 509.354 105.004 511 105.004 507 101.004 507 102.65 508.646" fill="#878787"/>
      <polygon points="109.358 503.354 111.943 500.768 111.236 500.061 108.65 502.646 107.004 501 107.004 505 111.004 505 109.358 503.354" fill="#878787"/>
      <polygon points="100.772 500.061 100.065 500.768 102.65 503.354 101.004 505 105.004 505 105.004 501 103.358 502.646 100.772 500.061" fill="#878787"/>
    </g>
    <rect x="100.004" y="250" width="13" height="11" fill="#231f20" opacity="0.8"/>
    <rect x="106.004" y="257" width="4" height="1" fill="#fff"/>
    <path d="M102.004,255.8642l3.15464-1.35665-3.15464-1.34706V252l3.99972,2v1l-3.99972,1.99772Z" fill="#fff"/>
    <path d="M221.99806,102.11424a9.48133,9.48133,0,0,1-2.57125.718,4.32073,4.32073,0,0,0,1.97788-2.51315,8.85759,8.85759,0,0,1-2.84815,1.117,4.49812,4.49812,0,0,0-7.79286,3.11152,4.38342,4.38342,0,0,0,.11867,1.03718,12.76123,12.76123,0,0,1-9.29605-4.74707,4.42928,4.42928,0,0,0-.59336,2.2738,4.53943,4.53943,0,0,0,2.01744,3.78968,5.09351,5.09351,0,0,1-2.057-.55848v.03989a4.56614,4.56614,0,0,0,3.59975,4.46783,4.0515,4.0515,0,0,1-1.18673.15956,7.04686,7.04686,0,0,1-.87027-.07978,4.52243,4.52243,0,0,0,4.19311,3.15142,9.14192,9.14192,0,0,1-5.61719,1.95467,9.61979,9.61979,0,0,1-1.068-.07978,12.81211,12.81211,0,0,0,19.73927-10.89033v-.59837A8.47645,8.47645,0,0,0,221.99806,102.11424Z" fill="#1cb7eb"/>
    <path d="M235.24607,353.38774a15.19251,15.19251,0,0,1-4.12,1.15056,6.92338,6.92338,0,0,0,3.16925-4.02694,14.193,14.193,0,0,1-4.56372,1.78975,7.20753,7.20753,0,0,0-12.48685,4.98573,7.023,7.023,0,0,0,.19016,1.66191,20.44783,20.44783,0,0,1-14.89548-7.60644,7.09717,7.09717,0,0,0-.95078,3.64342,7.27373,7.27373,0,0,0,3.23264,6.07237,8.16171,8.16171,0,0,1-3.296-.89487v.06392a7.31653,7.31653,0,0,0,5.768,7.159,6.49167,6.49167,0,0,1-1.90155.25568,11.29105,11.29105,0,0,1-1.39447-.12784,7.24649,7.24649,0,0,0,6.71882,5.04965,14.64856,14.64856,0,0,1-9.00068,3.13207,15.41345,15.41345,0,0,1-1.71139-.12784,20.38472,20.38472,0,0,0,11.09238,3.2599c13.31085,0,20.53674-11.122,20.53674-20.71v-.9588A13.58214,13.58214,0,0,0,235.24607,353.38774Z" fill="#1cb7eb"/>
    <rect x="150.004" y="100" width="22" height="22" rx="3.83089" ry="3.83089" fill="#1cb7eb"/>
    <path d="M169.12324,106.57377a6.29691,6.29691,0,0,1-1.76754.51636,3.08814,3.08814,0,0,0,1.35965-1.80725,5.93386,5.93386,0,0,1-1.95789.80322,3.02649,3.02649,0,0,0-2.257-1.03271,3.18712,3.18712,0,0,0-3.1,3.27025,3.291,3.291,0,0,0,.08158.74585,8.65366,8.65366,0,0,1-6.39033-3.41369,3.40737,3.40737,0,0,0,.97895,4.36035,3.38293,3.38293,0,0,1-1.414-.40161v.02868a3.25284,3.25284,0,0,0,2.47455,3.21289,2.67024,2.67024,0,0,1-.81579.11474,4.63553,4.63553,0,0,1-.59824-.05737,3.13169,3.13169,0,0,0,2.88245,2.26623,6.11249,6.11249,0,0,1-3.86139,1.40564,6.3279,6.3279,0,0,1-.73421-.05737,8.46885,8.46885,0,0,0,4.75875,1.463c5.71051,0,8.8105-4.99145,8.8105-9.29442v-.4303A5.9858,5.9858,0,0,0,169.12324,106.57377Z" fill="#fff"/>
    <path d="M215.65207,3.216H213.9292c-1.37829,0-1.608.68915-1.608,1.608v2.1823h3.33088l-.45943,3.33089h-2.87145v8.61436h-3.44574V10.33723H206.004V7.00634h2.87145V4.47947C208.87545,1.608,210.59832,0,213.24005,0c1.26344,0,2.29717.11486,2.64174.11486V3.216Z" fill="#4566a2"/>
    <path d="M214.63659,254.91436h-2.613c-2.09037,0-2.43877,1.05308-2.43877,2.45718v3.33474h5.05173l-.69679,5.08987h-4.35494v13.16347h-5.22592V265.79615H200.004v-5.08987h4.35494V256.845c0-4.38782,2.613-6.845,6.6195-6.845,1.91618,0,3.484.17551,4.00655.17551v4.73885Z" fill="#4566a2"/>
    <rect x="150.004" y="50" width="22" height="22" rx="3.83089" ry="3.83089" fill="#dc4e41"/>
    <g>
      <rect x="150.004" width="22" height="22" rx="3.83089" ry="3.83089" fill="#4566a2"/>
      <path d="M166.004,11.29883l-.00049-.57469h2.46387l.3789-2.6792h-2.84277l.00049-1.67482c0-.82178.21045-1.438,1.47363-1.438h1.57959V2.15967c-.31592,0-.895-.10254-2.05322-.10254a3.689,3.689,0,0,0-4,4.00488l-.00049,1.98342H160.004v2.67871h2.99951L163.004,19h3Z" fill="#fff"/>
    </g>
    <g>
      <path d="M161.56616,264h-9.12432a2.43784,2.43784,0,0,1-2.43784-2.43784v-9.12432A2.43784,2.43784,0,0,1,152.44184,250h9.12432a2.43784,2.43784,0,0,1,2.43784,2.43784v9.12432A2.43784,2.43784,0,0,1,161.56616,264Z" fill="#1cb7eb"/>
      <path d="M162.17079,254.18331a4.00751,4.00751,0,0,1-1.1248.32859,1.96516,1.96516,0,0,0,.86523-1.15007,3.77589,3.77589,0,0,1-1.24593.51114,1.926,1.926,0,0,0-1.43628-.65718,2.02818,2.02818,0,0,0-1.97272,2.08107,2.0941,2.0941,0,0,0,.05192.47464,5.50693,5.50693,0,0,1-4.06658-2.17235,2.16834,2.16834,0,0,0,.623,2.77476,2.15267,2.15267,0,0,1-.89984-.25557v.01826a2.07,2.07,0,0,0,1.57472,2.04456,1.69942,1.69942,0,0,1-.51914.073,2.95134,2.95134,0,0,1-.3807-.03651,1.9929,1.9929,0,0,0,1.83428,1.44215,3.88974,3.88974,0,0,1-2.45724.89449,4.02488,4.02488,0,0,1-.46723-.03651,5.38925,5.38925,0,0,0,3.0283.931,5.73685,5.73685,0,0,0,5.60668-5.91463v-.27383A3.80931,3.80931,0,0,0,162.17079,254.18331Z" fill="#fff"/>
    </g>
    <g>
      <path d="M152.00592,60.85012a5.85163,5.85163,0,0,1,5.40253-5.82193,5.40224,5.40224,0,0,1,4.09284,1.41385c-.49113.499-.90041.998-1.39158,1.49711a4.1741,4.1741,0,0,0-3.438-.6654,3.67894,3.67894,0,1,0,2.53759,6.90308,3.17828,3.17828,0,0,0,1.80085-2.16241h-3.19243v-1.913h5.48441a6.76037,6.76037,0,0,1-1.146,4.65753,5.71165,5.71165,0,0,1-6.13926,1.66341A6.04727,6.04727,0,0,1,152.00592,60.85012Z" fill="#fff"/>
      <path d="M166.74014,58.355h1.63713v1.66341h1.63714v1.66341h-1.63714v1.66341h-1.63713V61.68182H165.103V60.01841h1.63714A11.285,11.285,0,0,1,166.74014,58.355Z" fill="#fff"/>
    </g>
    <g>
      <path d="M161.56616,214h-9.12432a2.43784,2.43784,0,0,1-2.43784-2.43784v-9.12432A2.43784,2.43784,0,0,1,152.44184,200h9.12432a2.43784,2.43784,0,0,1,2.43784,2.43784v9.12432A2.43784,2.43784,0,0,1,161.56616,214Z" fill="#dc4e41"/>
      <g>
        <path d="M151.02245,206.98746a3.9445,3.9445,0,0,1,3.59413-3.9587,3.54628,3.54628,0,0,1,2.72283.96137c-.32672.3393-.599.67861-.92577,1.018a2.72872,2.72872,0,0,0-2.28719-.45245,2.4832,2.4832,0,0,0-1.52478,3.22349,2.425,2.425,0,0,0,3.213,1.47036,2.15,2.15,0,0,0,1.19806-1.47036h-2.12383V206.4784h3.64861a4.67548,4.67548,0,0,1-.76241,3.167,3.74673,3.74673,0,0,1-4.08425,1.13106A4.10625,4.10625,0,0,1,151.02245,206.98746Z" fill="#fff"/>
        <path d="M160.82466,205.29087h1.08913v1.13106h1.08913V207.553h-1.08913v1.13106h-1.08913V207.553h-1.08914v-1.13106h1.08914A7.84184,7.84184,0,0,1,160.82466,205.29087Z" fill="#fff"/>
      </g>
    </g>
    <g>
      <path d="M200.00635,56.96865a7.03965,7.03965,0,0,1,6.58848-6.93507,6.68538,6.68538,0,0,1,4.99129,1.68418c-.59893.59441-1.09806,1.18882-1.697,1.78335a5.188,5.188,0,0,0-4.1927-.79263,4.3058,4.3058,0,0,0-2.79511,5.64709,4.50511,4.50511,0,0,0,5.88975,2.57586,3.80965,3.80965,0,0,0,2.19618-2.57586H207.094V56.07685h6.68834a7.90914,7.90914,0,0,1-1.39758,5.548c-1.69706,2.17954-4.9913,2.77407-7.48694,1.98145A7.21834,7.21834,0,0,1,200.00635,56.96865Z" fill="#dc4e41"/>
      <polygon points="222.004 56 220.004 56 220.004 54 218.004 54 218.004 56 216.004 56 216.004 58 218.004 58 218.004 60 220.004 60 220.004 58 222.004 58 222.004 56" fill="#dc4e41"/>
    </g>
    <g>
      <path d="M200.00784,311.46891a11.5343,11.5343,0,0,1,10.76792-11.38456,10.89592,10.89592,0,0,1,8.15754,2.76474c-.97886.97578-1.79462,1.95156-2.77358,2.92754-1.95783-1.13838-4.4051-2.11436-6.85236-1.30118a7.07493,7.07493,0,0,0-4.56821,9.27021,7.35284,7.35284,0,0,0,9.626,4.22851,6.24621,6.24621,0,0,0,3.58934-4.22851h-6.36293v-3.74072h10.93114c.16311,3.09013-.16312,6.50546-2.28416,9.10761-2.77358,3.57792-8.15754,4.5539-12.23632,3.25273A11.84444,11.84444,0,0,1,200.00784,311.46891Z" fill="#dc4e41"/>
      <polygon points="235.96 309.879 232.691 309.879 232.691 306.596 229.422 306.596 229.422 309.879 226.154 309.879 226.154 313.162 229.422 313.162 229.422 316.445 232.691 316.445 232.691 313.162 235.96 313.162 235.96 309.879" fill="#dc4e41"/>
    </g>
    <path d="M217.734,419.40264a4.47492,4.47492,0,0,1,1.27,3.46706c0,2.50515-.02135,4.52132-.02135,5.13807,0,.022.00152.97013.00273.99223h-9.28924c.00136-.02225.00287-.97059.00287-.99254,0-.44613-.01726-1.9214-.02528-3.48583-5.20876,1.13253-6.30783-2.209-6.30783-2.209a4.95917,4.95917,0,0,0-2.07884-2.7395c-1.69871-1.162.12807-1.13813.12807-1.13813a3.93583,3.93583,0,0,1,2.87,1.92958,3.98622,3.98622,0,0,0,5.44841,1.55641,3.98626,3.98626,0,0,1,1.18869-2.50349c-4.1586-.47323-8.53049-2.07884-8.53049-9.25291a7.24437,7.24437,0,0,1,1.92942-5.02543,6.72864,6.72864,0,0,1,.18136-4.955s1.57215-.50291,5.14972,1.91943a17.75355,17.75355,0,0,1,9.37659,0c3.57349-2.42234,5.14352-1.91943,5.14352-1.91943a6.72061,6.72061,0,0,1,.18394,4.955,7.23228,7.23228,0,0,1,1.92685,5.02543C226.28313,417.35574,221.9032,418.93909,217.734,419.40264Z" fill="#3b3b3b"/>
    <path d="M216.78818,156.60693a4.73022,4.73022,0,0,0-1.26026-3.28711,4.39632,4.39632,0,0,0-.12011-3.2417s-1.02735-.32861-3.36475,1.25586a11.61814,11.61814,0,0,0-6.13379,0c-2.33984-1.58447-3.36816-1.25586-3.36816-1.25586a4.40075,4.40075,0,0,0-.11866,3.2417,4.73828,4.73828,0,0,0-1.2622,3.28711c0,4.69287,2.85986,5.74317,5.58008,6.05274a1.86413,1.86413,0,0,0-.29444.34668c-.00537.00781-.01172.0122-.01709.02h.0044a2.894,2.894,0,0,0-.4292,1.08056v.28907a2.53286,2.53286,0,0,1-3.31592-1.1167,2.57535,2.57535,0,0,0-1.87744-1.26221s-1.19483-.01563-.0835.74414a3.24406,3.24406,0,0,1,1.35938,1.792s.6958,2.08545,3.91748,1.48194v2.89257h6v-4.27294a3.26234,3.26234,0,0,0-.48926-1.62842h.00879c-.00781-.01123-.0166-.01709-.02442-.02832a1.83967,1.83967,0,0,0-.30273-.34815C213.92343,162.34668,216.78818,161.311,216.78818,156.60693Z" fill="#3b3b3b"/>
    <g>
      <rect x="200.004" y="200" width="16" height="16"/>
      <rect x="202.004" y="213" width="7" height="1" fill="#fff"/>
      <g>
        <path d="M201.26079,208.272l1.0053-1.1197a1.78876,1.78876,0,0,0,1.32691.7255c.60189,0,.975-.3625.975-1.2024V202h1.63749v4.748a2.6372,2.6372,0,0,1-.6837,1.9384,2.59451,2.59451,0,0,1-1.8874.674A2.96659,2.96659,0,0,1,201.26079,208.272Z" fill="#fff"/>
        <path d="M207.83629,202H211.205a2.61867,2.61867,0,0,1,1.89669.6428,1.6616,1.6616,0,0,1,.498,1.2336v.0207a1.68773,1.68773,0,0,1-.9538,1.5653,1.77391,1.77391,0,0,1,1.35811,1.7832v.0207c0,1.3269-1.07791,1.9903-2.71631,1.9903h-3.4514Zm4.1773,2.1461c0-.4769-.373-.7466-1.04659-.7466h-1.57591v1.5341h1.4721c.70481,0,1.1504-.2279,1.1504-.7668Zm-.7774,2.1144h-1.8451v1.5966h1.8966c.7048,0,1.13031-.2486,1.13031-.7879v-.0207C212.418,206.5614,212.055,206.2605,211.23619,206.2605Z" fill="#fff"/>
      </g>
      <rect x="202.004" y="213" width="7" height="1" fill="#fff"/>
    </g>
    <g>
      <rect x="200.004" y="450" width="23.99414" height="23.99414"/>
      <rect x="203.00326" y="469.49524" width="8.9978" height="1.49963" fill="#fff"/>
      <rect x="203.00326" y="470.24505" width="8.9978" height="0.74982" fill="#fff"/>
      <g>
        <path d="M202.61987,461.51239l1.37112-1.527a2.43913,2.43913,0,0,0,1.80961.98938c.82075,0,1.32957-.49443,1.32957-1.63978v-6.37636h2.23326V459.434a3.59687,3.59687,0,0,1-.9324,2.64363,3.53868,3.53868,0,0,1-2.574.9192A4.04551,4.04551,0,0,1,202.61987,461.51239Z" fill="#fff"/>
        <path d="M210.50143,452.95863h4.59427a3.57147,3.57147,0,0,1,2.58673.87661,2.26606,2.26606,0,0,1,.67917,1.68244v.02819a2.30189,2.30189,0,0,1-1.30085,2.13488,2.41909,2.41909,0,0,1,1.85227,2.4318v.0282c0,1.80968-1.47,2.71448-3.70447,2.71448h-4.70712Zm5.69711,2.92683c0-.65039-.50883-1.01817-1.42743-1.01817h-2.14919v2.09221h2.00762c.96119,0,1.569-.3108,1.569-1.04584Zm-1.06017,2.88372h-2.51645v2.1774h2.58663c.96126,0,1.5414-.339,1.5414-1.07457v-.02826C216.75,459.17956,216.255,458.76918,215.13837,458.76918Z" fill="#fff"/>
      </g>
    </g>
    <g>
      <path d="M161.56616,164h-9.12432a2.43784,2.43784,0,0,1-2.43784-2.43784v-9.12432A2.43784,2.43784,0,0,1,152.44184,150h9.12432a2.43784,2.43784,0,0,1,2.43784,2.43784v9.12432A2.43784,2.43784,0,0,1,161.56616,164Z" fill="#4566a2"/>
      <path d="M159.98965,157.5634l-.00032-.40547h1.61507l.24838-1.8903h-1.86345l.00032-1.18166c0-.5798.13795-1.01456.966-1.01456h1.03543v-1.9561c-.20709,0-.58669-.07234-1.3459-.07234a2.51394,2.51394,0,0,0-2.622,2.82562l-.00032,1.39939h-1.96619v1.88995h1.96619l.00032,5.839h1.96651Z" fill="#fff"/>
    </g>
    <path d="M110.96152,5c.25683-.00195,1.01416,0,1.01416,0h.02832V7.97119L116.004,4l-4-4V3h-1a8.63984,8.63984,0,0,0-5,1.40723c-1.6836,1.34668-2,2.55566-2.01172,4.59277h.12451a5.14017,5.14017,0,0,1,3.09863-3.42236A8.80746,8.80746,0,0,1,110.004,5Z" fill="#878787"/>
    <path d="M107.004,551a6,6,0,1,1-6,6,6.00657,6.00657,0,0,1,6-6m0-1a7,7,0,1,0,7,7,6.99972,6.99972,0,0,0-7-7Z" fill="#fff" opacity="0.9" style="isolation: isolate"/>
    <polygon points="110.07 559.303 107.781 557.014 110.07 554.725 109.307 553.962 107.018 556.251 104.729 553.962 103.966 554.725 106.255 557.014 103.966 559.303 104.729 560.066 107.018 557.777 109.307 560.066 110.07 559.303" fill="#fff"/>
    <polygon points="106.004 608.747 102.004 605.481 106.004 602.216 106.004 600.584 100.004 605.481 106.004 610.379 106.004 608.747" fill="#fff"/>
  </g>
</svg>
